<?xml version="1.0" encoding="UTF-8" standalone="no"?>
<svg
   xmlns:dc="http://purl.org/dc/elements/1.1/"
   xmlns:cc="http://creativecommons.org/ns#"
   xmlns:rdf="http://www.w3.org/1999/02/22-rdf-syntax-ns#"
   xmlns:svg="http://www.w3.org/2000/svg"
   xmlns="http://www.w3.org/2000/svg"
   xmlns:sodipodi="http://sodipodi.sourceforge.net/DTD/sodipodi-0.dtd"
   xmlns:inkscape="http://www.inkscape.org/namespaces/inkscape"
   width="360"
   height="540"
   version="1.1"
   id="svg11402"
   sodipodi:docname="diamonds_ace.svg"
   inkscape:version="0.92.5 (2060ec1f9f, 2020-04-08)">
  <metadata
     id="metadata11408">
    <rdf:RDF>
      <cc:Work
         rdf:about="">
        <dc:format>image/svg+xml</dc:format>
        <dc:type
           rdf:resource="http://purl.org/dc/dcmitype/StillImage" />
      </cc:Work>
    </rdf:RDF>
  </metadata>
  <defs
     id="defs11406" />
  <sodipodi:namedview
     pagecolor="#ffffff"
     bordercolor="#666666"
     borderopacity="1"
     objecttolerance="10"
     gridtolerance="10"
     guidetolerance="10"
     inkscape:pageopacity="0"
     inkscape:pageshadow="2"
     inkscape:window-width="1366"
     inkscape:window-height="739"
     id="namedview11404"
     showgrid="true"
     inkscape:zoom="1.2361274"
     inkscape:cx="128.03335"
     inkscape:cy="334.69087"
     inkscape:window-x="0"
     inkscape:window-y="1"
     inkscape:window-maximized="1"
     inkscape:current-layer="svg11402">
    <inkscape:grid
       type="xygrid"
       id="grid12009" />
  </sodipodi:namedview>
  <g
     transform="translate(-30 1227.62)"
     id="g11400">
    <rect
       y="-1227.14"
       x="30.5"
       rx="29.944"
       height="539"
       width="359"
       fill="#fff"
       stroke="#000"
       id="rect11386" />
    <g
       fill="#f55"
       id="g11398">
      <path
         d="m210-997.64c0 0 8 13.333 17.333 22.667 9.333 9.333 22.667 17.333 22.667 17.333 0 0-13.333 8-22.667 17.333-9.333 9.333-17.333 22.667-17.333 22.667 0 0-8-13.333-17.333-22.667-9.333-9.333-22.667-17.333-22.667-17.333 0 0 13.333-8 22.667-17.333 9.333-9.333 17.333-22.667 17.333-22.667"
         id="path11390" />
      <path
         d="m360-807.64c0 0 3 5 6.5 8.5 3.5 3.5 8.5 6.5 8.5 6.5 0 0-5 3-8.5 6.5-3.5 3.5-6.5 8.5-6.5 8.5 0 0-3-5-6.5-8.5-3.5-3.5-8.5-6.5-8.5-6.5 0 0 5-3 8.5-6.5 3.5-3.5 6.5-8.5 6.5-8.5"
         id="path11392" />
      <path
         d="m60-1137.64c0 0 3 5 6.5 8.5 3.5 3.5 8.5 6.5 8.5 6.5 0 0-5 3-8.5 6.5-3.5 3.5-6.5 8.5-6.5 8.5 0 0-3-5-6.5-8.5-3.5-3.5-8.5-6.5-8.5-6.5 0 0 5-3 8.5-6.5 3.5-3.5 6.5-8.5 6.5-8.5"
         id="path11394" />
    </g>
  </g>
  <path
     style="fill:#ff5555;fill-opacity:1;stroke:none;stroke-width:1.05409253px;stroke-linecap:butt;stroke-linejoin:miter;stroke-opacity:1"
     d="m 17.338103,79.994704 10,-50 h 5 l 10,50 h -5 L 30,46.661371 27.338103,57.772482 h 6 l 1,5.555555 h -9 l 2,-5.555555 -5,22.222222 z"
     id="path10731"
     inkscape:connector-curvature="0"
     sodipodi:nodetypes="ccccccccccccc" />
  <path
     style="fill:#ff5555;fill-opacity:1;stroke:none;stroke-width:1.05409253px;stroke-linecap:butt;stroke-linejoin:miter;stroke-opacity:1"
     d="m 342.70784,460.02997 -10,50 h -5 l -10,-50 h 5 l 7.3381,33.33333 2.6619,-11.11111 h -6 l -1,-5.55555 h 9 l -2,5.55555 5,-22.22222 z"
     id="path10731-3"
     inkscape:connector-curvature="0"
     sodipodi:nodetypes="ccccccccccccc" />
</svg>
